# File created by Blade
# Date/Time:  Thu Jan 15 17:55:17 2015
#---------------------------------------------------------
:version 1.10
:name HOM
:units
  mass 1.0
  length 1.000000
  angle deg
:documentation
     Acclaim Skeleton File
:root
   axis xyz
   order TX TY TZ RX RY RZ
   position 0.000000 0.000000 0.000000
   orientation 0 0 0
:bonedata
   begin
      id 1
      name Spine_dum
      direction 0.000000 1.000000 0.000000
      length 5.015652
      axis 0.0 0.0 0.0 xyz
   end
   begin
      id 2
      name LeftUpLeg_dum
      direction 1.000000 0.000000 0.000000
      length 4.275145
      axis 0.0 0.0 0.0 xyz
   end
   begin
      id 3
      name RightUpLeg_dum
      direction -1.000000 0.000000 0.000000
      length 4.275145
      axis 0.0 0.0 0.0 xyz
   end
   begin
      id 4
      name Spine
      direction 0.000000 1.000000 0.000000
      length 0.000000
      axis 0.0 0.0 0.0 xyz
      dof rx ry rz
   end
   begin
      id 5
      name Spine_dum1
      direction 0.000000 1.000000 0.000000
      length 15.980521
      axis 0.0 0.0 0.0 xyz
   end
   begin
      id 6
      name Spine_dum2
      direction 0.000000 1.000000 0.000000
      length 12.162712
      axis 0.0 0.0 0.0 xyz
   end
   begin
      id 7
      name Spine_dum3
      direction 0.000000 1.000000 0.000000
      length 12.162712
      axis 0.0 0.0 0.0 xyz
   end
   begin
      id 8
      name Head
      direction 0.000000 1.000000 0.000000
      length 4.527550
      axis 0.0 0.0 0.0 xyz
      dof rx ry rz
   end
   begin
      id 9
      name LeftShoulder
      direction 1.000000 0.000000 0.000000
      length 7.205867
      axis 0.0 0.0 -90.0 xyz
      dof rx ry rz
   end
   begin
      id 10
      name LeftArm
      direction 1.000000 0.000000 0.000000
      length 10.786708
      axis 0.0 0.0 -90.0 xyz
      dof rx ry rz
   end
   begin
      id 11
      name LeftForeArm
      direction 1.000000 0.000000 0.000000
      length 7.946034
      axis 0.0 0.0 -90.0 xyz
      dof rz ry rx
   end
   begin
      id 12
      name LeftHand
      direction 0.000000 0.000000 0.000000
      length 0.000000
      axis 0.0 0.0 -90.0 xyz
      dof rx ry rz
   end
   begin
      id 13
      name LeftHand_dum1
      direction 0.000000 0.000000 0.000000
      length 0.000000
      axis 0.0 0.0 -90.0 xyz
   end
   begin
      id 14
      name LeftHand_dum2
      direction 1.000000 0.000000 0.000000
      length 3.937000
      axis 0.0 0.0 -90.0 xyz
   end
   begin
      id 15
      name LeftHandThumb1
      direction 0.000000 0.000000 1.000000
      length 3.937000
      axis 0.0 0.0 -90.0 xyz
      dof rx ry rz
   end
   begin
      id 16
      name RightShoulder
      direction -1.000000 0.000000 0.000000
      length 7.205867
      axis 0.0 0.0 90.0 xyz
      dof rx ry rz
   end
   begin
      id 17
      name RightArm
      direction -1.000000 0.000000 0.000000
      length 10.786708
      axis 0.0 0.0 90.0 xyz
      dof rx ry rz
   end
   begin
      id 18
      name RightForeArm
      direction -1.000000 0.000000 0.000000
      length 7.946034
      axis 0.0 0.0 90.0 xyz
      dof rz ry rx
   end
   begin
      id 19
      name RightHand
      direction 0.000000 0.000000 0.000000
      length 0.000000
      axis 0.0 0.0 90.0 xyz
      dof rx ry rz
   end
   begin
      id 20
      name RightHand_dum1
      direction 0.000000 0.000000 0.000000
      length 0.000000
      axis 0.0 0.0 90.0 xyz
   end
   begin
      id 21
      name RightHand_dum2
      direction -1.000000 0.000000 0.000000
      length 3.937000
      axis 0.0 0.0 90.0 xyz
   end
   begin
      id 22
      name RightHandThumb1
      direction 0.000000 0.000000 1.000000
      length 3.937000
      axis 0.0 0.0 90.0 xyz
      dof rx ry rz
   end
   begin
      id 23
      name LeftUpLeg
      direction 0.000000 -1.000000 0.000000
      length 17.046659
      axis 0.0 0.0 0.0 xyz
      dof rx ry rz
   end
   begin
      id 24
      name LeftLeg
      direction 0.000000 -1.000000 0.000000
      length 17.458438
      axis 0.0 0.0 0.0 xyz
      dof rx ry rz
   end
   begin
      id 25
      name LeftFoot
      direction 0.000000 -0.258819 0.965926
      length 5.099406
      axis 15.0 0.0 0.0 xyz
      dof rx ry rz
   end
   begin
      id 26
      name LeftToeBase
      direction 0.000000 0.000000 1.000000
      length 2.952750
      axis 0.0 0.0 0.0 xyz
      dof rx ry rz
   end
   begin
      id 27
      name RightUpLeg
      direction 0.000000 -1.000000 0.000000
      length 17.046659
      axis 0.0 0.0 0.0 xyz
      dof rx ry rz
   end
   begin
      id 28
      name RightLeg
      direction 0.000000 -1.000000 0.000000
      length 17.458438
      axis 0.0 0.0 0.0 xyz
      dof rx ry rz
   end
   begin
      id 29
      name RightFoot
      direction 0.000000 -0.258819 0.965926
      length 5.099406
      axis 15.0 0.0 0.0 xyz
      dof rx ry rz
   end
   begin
      id 30
      name RightToeBase
      direction 0.000000 0.000000 1.000000
      length 2.952750
      axis 0.0 0.0 0.0 xyz
      dof rx ry rz
   end
:hierarchy
   begin
      root Spine_dum LeftUpLeg_dum RightUpLeg_dum
      Spine_dum Spine
      LeftUpLeg_dum LeftUpLeg
      RightUpLeg_dum RightUpLeg
      Spine Spine_dum1 Spine_dum2 Spine_dum3
      Spine_dum1 Head
      Spine_dum2 LeftShoulder
      Spine_dum3 RightShoulder
      LeftShoulder LeftArm
      LeftArm LeftForeArm
      LeftForeArm LeftHand
      LeftHand LeftHand_dum1 LeftHand_dum2
      LeftHand_dum1 LeftHandThumb1
      RightShoulder RightArm
      RightArm RightForeArm
      RightForeArm RightHand
      RightHand RightHand_dum1 RightHand_dum2
      RightHand_dum1 RightHandThumb1
      LeftUpLeg LeftLeg
      LeftLeg LeftFoot
      LeftFoot LeftToeBase
      RightUpLeg RightLeg
      RightLeg RightFoot
      RightFoot RightToeBase
   end

# File created by Blade
# Date/Time:  Thu Jan 15 17:55:09 2015
# Frame Rate: 120.000 fps
#------------------------------------------------------
:FULLY-SPECIFIED
:DEGREES
1410
root 7.082341 35.561016 -12.699285 9.366216 -4.476101 1.359573
Spine 5.246469 -9.959563 -4.347201
Head -11.811636 15.214883 13.591465
LeftShoulder -22.607725 -7.240283 19.459802
LeftArm 65.804203 -12.728514 -41.162926
LeftForeArm -0.000000 28.772071 9.084862
LeftHand 6.098578 -0.000000 6.101268
LeftHandThumb1 -26.253704 33.147579 0.000000
RightShoulder 13.213611 33.390051 -10.757189
RightArm 41.433135 17.206539 54.184423
RightForeArm -0.000000 -52.841345 19.127239
RightHand 0.176277 -0.000000 -3.480444
RightHandThumb1 -24.326973 -32.862282 -0.000000
LeftUpLeg -6.612936 7.291636 5.242317
LeftLeg 0.847952 -0.000000 -0.000000
LeftFoot -20.184869 11.623326 -19.570987
LeftToeBase 26.387357 -0.000000 -0.000000
RightUpLeg -7.149111 -13.878358 -5.240598
RightLeg -5.150289 -0.000000 0.000000
RightFoot -14.147081 -28.387168 11.771858
RightToeBase 27.962408 -0.000000 -0.000000
1411
root 7.077815 35.555639 -12.549971 8.982978 -4.444711 1.350202
Spine 4.587655 -9.969945 -4.136391
Head -11.099704 15.006663 13.488398
LeftShoulder -22.706685 -7.178934 19.382858
LeftArm 65.017626 -13.302640 -40.729184
LeftForeArm -0.000000 28.685676 9.121523
LeftHand 6.146054 -0.000000 6.019069
LeftHandThumb1 -26.253704 33.147579 0.000000
RightShoulder 12.977142 33.160289 -10.836628
RightArm 41.233694 17.653999 53.508086
RightForeArm -0.000000 -52.712556 18.861018
RightHand 0.375221 -0.000000 -3.354879
RightHandThumb1 -24.326973 -32.862282 -0.000000
LeftUpLeg -6.087282 7.157416 5.324039
LeftLeg 1.052847 -0.000000 -0.000000
LeftFoot -20.498274 11.601185 -19.630470
LeftToeBase 26.336613 -0.000000 -0.000000
RightUpLeg -6.581337 -13.806092 -5.395749
RightLeg -4.978180 -0.000000 0.000000
RightFoot -14.510138 -28.418783 11.856735
RightToeBase 28.037721 -0.000000 -0.000000
1412
root 7.069894 35.549748 -12.404662 8.594412 -4.399799 1.314357
Spine 3.974823 -10.006192 -3.895603
Head -10.420347 14.850775 13.359366
LeftShoulder -22.773283 -7.110055 19.264002
LeftArm 64.136828 -13.899586 -40.148515
LeftForeArm -0.000000 28.713855 9.190699
LeftHand 6.159810 0.000000 6.039902
LeftHandThumb1 -26.253704 33.147579 0.000000
RightShoulder 12.808397 32.976659 -10.942493
RightArm 40.895657 18.070517 52.784032
RightForeArm 0.000000 -52.542488 18.709269
RightHand 0.363249 -0.000000 -3.211041
RightHandThumb1 -24.326973 -32.862282 -0.000000
LeftUpLeg -5.577895 7.027117 5.433444
LeftLeg 1.284691 -0.000000 -0.000000
LeftFoot -20.820883 11.591524 -19.658273
LeftToeBase 26.284089 -0.000000 -0.000000
RightUpLeg -6.038211 -13.800590 -5.500316
RightLeg -4.760455 -0.000000 0.000000
RightFoot -14.876999 -28.415530 11.896215
RightToeBase 28.146740 -0.000000 -0.000000
1413
root 7.065389 35.543711 -12.260836 8.222841 -4.372699 1.279822
Spine 3.378394 -10.009384 -3.649180
Head -9.791533 14.657435 13.225229
LeftShoulder -22.834610 -7.053993 19.108269
LeftArm 63.247756 -14.476297 -39.497080
LeftForeArm -0.000000 28.577493 9.248047
LeftHand 6.145620 -0.000000 5.972541
LeftHandThumb1 -26.253704 33.147579 0.000000
RightShoulder 12.587469 32.867090 -11.120770
RightArm 40.628001 18.725493 52.455439
RightForeArm -0.000000 -52.824127 18.470378
RightHand 0.513638 -0.000000 -3.084459
RightHandThumb1 -24.326973 -32.862282 -0.000000
LeftUpLeg -5.074315 6.801562 5.545357
LeftLeg 1.499138 -0.000000 -0.000000
LeftFoot -21.158242 11.659974 -19.694055
LeftToeBase 26.200655 -0.000000 -0.000000
RightUpLeg -5.480859 -13.735201 -5.616118
RightLeg -4.614409 -0.000000 0.000000
RightFoot -15.189516 -28.415219 12.054380
RightToeBase 27.920138 -0.000000 -0.000000
